<?xml version="1.0" standalone="no"?>
<!DOCTYPE svg PUBLIC "-//W3C//DTD SVG 20010904//EN"
 "http://www.w3.org/TR/2001/REC-SVG-20010904/DTD/svg10.dtd">
<svg version="1.0" xmlns="http://www.w3.org/2000/svg"
 width="2300.000000pt" height="3100.000000pt" viewBox="0 0 2300.000000 3100.000000"
 preserveAspectRatio="xMidYMid meet">
<metadata>
Created by potrace 1.16, written by Peter Selinger 2001-2019
</metadata>
<g transform="translate(0.000000,3100.000000) scale(0.100000,-0.100000)"
fill="#000000" stroke="none">
<path d="M10340 29034 c-1243 -34 -2361 -291 -3470 -799 -307 -140 -765 -394
-1020 -565 -14 -9 -81 -54 -150 -100 -415 -277 -860 -646 -1229 -1019 -1082
-1096 -1803 -2412 -2080 -3796 -81 -406 -111 -687 -118 -1115 -6 -348 7 -561
52 -885 23 -163 98 -590 110 -624 3 -7 -24 -66 -59 -130 -145 -260 -246 -522
-297 -766 -19 -89 -23 -142 -24 -280 0 -206 12 -252 110 -424 89 -158 188
-285 326 -421 437 -431 1081 -761 1653 -846 l109 -16 171 -122 c455 -325 885
-586 1379 -837 76 -38 137 -73 135 -77 -2 -4 -50 -50 -108 -102 -148 -132
-448 -434 -566 -570 -331 -380 -534 -689 -711 -1080 -29 -63 -93 -240 -117
-320 -155 -532 -97 -1034 165 -1417 74 -107 222 -258 327 -333 48 -34 131 -84
185 -111 85 -43 97 -52 93 -72 -37 -174 -98 -576 -136 -889 -76 -635 -91
-1435 -35 -1968 66 -632 216 -1135 438 -1464 111 -165 282 -320 419 -380 111
-48 176 -60 313 -60 135 0 202 12 315 56 131 51 283 140 393 231 26 21 53 37
61 34 7 -3 35 -45 61 -94 132 -243 358 -576 542 -801 43 -53 51 -68 41 -77 -7
-7 -69 -27 -138 -45 -862 -223 -1642 -551 -2160 -907 -310 -214 -544 -465
-634 -680 -71 -173 -77 -255 -27 -358 116 -236 456 -404 921 -456 135 -15 460
-15 620 0 867 84 1883 459 3072 1135 l47 27 71 -31 c698 -306 1516 -470 2351
-470 l180 0 137 -127 c75 -69 158 -142 185 -162 26 -19 47 -40 47 -46 0 -7
-51 -52 -112 -101 -128 -101 -516 -483 -629 -619 -314 -377 -506 -695 -610
-1010 -172 -519 -7 -903 461 -1072 158 -57 226 -67 440 -68 200 0 243 5 465
51 224 47 604 188 877 325 554 277 1100 650 1609 1096 853 747 1433 1532 1593
2158 28 111 46 217 46 284 0 44 2 46 173 220 195 198 291 304 430 473 642 784
1010 1600 1107 2453 34 301 25 716 -20 1003 -6 36 -7 69 -3 73 4 4 62 -3 128
-17 244 -48 372 -59 665 -59 244 1 288 3 388 23 430 86 681 295 773 644 30
110 32 329 5 463 -78 396 -273 787 -628 1257 -48 65 -88 124 -88 131 0 8 56
128 124 268 103 212 167 350 311 675 75 168 227 542 286 706 354 976 464 1602
338 1933 -16 43 -38 76 -78 116 -69 69 -123 89 -235 89 -187 0 -425 -131 -761
-418 -119 -102 -575 -557 -695 -694 -47 -53 -88 -94 -92 -90 -4 4 -2 70 3 147
19 245 -2 466 -55 580 -94 207 -301 233 -547 69 -238 -157 -589 -529 -980
-1036 -33 -43 -63 -78 -66 -78 -3 0 -94 57 -202 127 -108 69 -236 152 -286
183 -208 132 -714 434 -932 556 -78 43 -142 84 -143 89 0 6 60 46 133 89 578
346 1114 774 1576 1259 511 538 918 1118 1217 1732 390 801 604 1602 655 2442
13 224 7 739 -11 938 -14 157 -48 437 -60 500 -5 28 -19 106 -31 175 -70 411
-251 1028 -409 1400 -372 874 -818 1563 -1459 2254 -548 591 -1230 1124 -1956
1528 -143 80 -514 267 -631 318 -54 23 -117 51 -139 61 -22 10 -110 46 -195
79 -910 362 -1850 571 -2845 634 -241 16 -659 25 -855 20z m690 -199 c36 -3
137 -10 225 -15 1540 -103 3023 -604 4260 -1438 935 -631 1731 -1478 2294
-2442 53 -91 119 -208 145 -260 27 -52 52 -99 56 -105 5 -5 40 -80 80 -165
349 -748 554 -1487 631 -2275 25 -259 35 -731 20 -980 -54 -909 -312 -1801
-758 -2625 -611 -1127 -1595 -2113 -2768 -2772 -139 -78 -151 -87 -163 -122
-23 -69 0 -93 193 -198 120 -66 140 -77 325 -186 80 -47 191 -111 246 -143
413 -235 917 -566 1453 -952 173 -125 324 -227 335 -227 29 0 56 29 56 60 0
50 -196 240 -455 440 -66 51 -121 96 -123 101 -5 14 110 165 292 384 370 444
662 714 824 761 71 21 97 9 130 -58 64 -128 66 -411 6 -838 l-16 -115 -93
-155 c-126 -211 -141 -243 -129 -277 7 -23 16 -29 45 -31 41 -3 49 4 245 249
343 428 818 933 1109 1180 273 230 483 350 618 352 79 1 122 -44 153 -163 37
-146 -4 -532 -92 -870 -53 -200 -78 -282 -154 -510 -126 -379 -162 -473 -336
-890 -170 -408 -444 -990 -467 -990 -7 0 -66 62 -132 138 -254 292 -628 642
-686 642 -38 0 -59 -19 -59 -53 0 -26 16 -49 81 -122 45 -49 150 -168 233
-264 83 -96 183 -211 221 -255 300 -344 434 -514 582 -736 238 -358 372 -654
428 -945 19 -100 19 -289 0 -377 -45 -216 -210 -385 -454 -470 -238 -81 -644
-90 -1051 -23 -204 34 -293 54 -308 68 -7 7 -28 71 -47 143 -49 183 -123 398
-201 580 -453 1063 -1385 2117 -2649 2999 -140 97 -359 242 -494 327 l-84 53
-2 115 c-2 126 -16 193 -48 228 -25 27 -51 28 -75 4 -14 -14 -21 -41 -26 -102
-27 -327 -241 -958 -489 -1440 -321 -623 -712 -1115 -1194 -1500 -163 -130
-246 -189 -394 -278 -681 -410 -1422 -568 -2119 -451 -413 69 -785 218 -1138
456 -510 343 -938 865 -1251 1526 -37 78 -78 168 -90 200 -25 60 -69 107 -102
107 -33 0 -59 -18 -148 -102 -361 -341 -752 -569 -1153 -673 -550 -143 -1078
-43 -1426 268 -99 89 -155 157 -223 271 -71 119 -112 225 -146 371 -23 98 -26
132 -27 305 0 164 3 213 22 308 44 220 99 384 202 598 145 303 328 577 598
893 178 209 590 614 738 728 40 30 3 41 294 -85 1106 -476 2255 -721 3285
-698 285 6 420 15 625 42 995 131 1804 500 2504 1140 404 369 779 886 1049
1444 267 552 431 1084 513 1665 25 174 27 218 28 525 1 395 -12 532 -80 855
-102 479 -320 960 -619 1360 -531 711 -1335 1230 -2238 1444 -567 135 -1159
145 -1719 30 -366 -75 -793 -223 -1176 -409 -246 -120 -413 -215 -644 -369
-219 -145 -180 -130 -668 -259 -701 -186 -1245 -282 -1601 -282 -115 0 -125 6
-193 109 -165 252 -355 701 -608 1441 -68 199 -75 216 -105 233 -69 40 -33 74
-758 -699 -165 -175 -379 -400 -476 -499 -159 -161 -179 -178 -194 -165 -18
15 -101 124 -152 200 -106 157 -313 539 -313 578 0 56 190 496 340 788 86 168
282 514 331 584 9 14 68 102 130 195 738 1112 1830 2069 3067 2689 157 79 500
235 612 279 545 213 956 335 1482 442 123 24 255 49 293 55 427 63 733 95
1060 110 181 8 716 5 855 -5z m-6310 -4971 c298 -891 585 -1460 776 -1540 67
-28 416 -11 709 35 341 54 503 88 899 187 120 30 221 52 224 49 3 -3 -87 -98
-199 -213 -185 -187 -333 -349 -414 -453 -393 -504 -640 -897 -915 -1454 -176
-356 -277 -586 -452 -1025 -122 -307 -140 -350 -149 -350 -4 0 -11 21 -14 48
-114 856 -616 1690 -1146 1901 -236 94 -425 77 -714 -64 -213 -103 -448 -298
-643 -533 -47 -56 -89 -99 -93 -95 -13 14 -77 402 -103 628 -30 257 -35 719
-11 1003 16 194 53 473 85 647 48 259 183 774 205 782 9 3 40 -48 131 -212 46
-83 173 -275 229 -345 29 -36 80 -91 113 -122 55 -53 65 -58 105 -58 l45 0
208 213 c227 232 609 633 885 929 96 103 178 186 183 185 5 -2 31 -66 56 -143z
m6075 -164 c691 -49 1354 -279 1920 -667 191 -131 344 -261 525 -442 575 -578
905 -1307 971 -2141 14 -187 6 -591 -16 -763 -74 -584 -238 -1124 -510 -1682
-245 -501 -526 -899 -904 -1275 -495 -493 -1086 -839 -1776 -1039 -798 -231
-1745 -254 -2725 -65 -1158 223 -2336 717 -3440 1442 -189 124 -340 232 -340
242 0 4 33 32 73 63 155 116 321 344 453 622 68 143 117 290 147 440 19 91 47
177 120 360 52 132 118 301 147 375 128 327 249 618 355 855 61 137 287 596
305 620 4 6 31 55 60 110 128 242 354 596 538 840 591 788 1251 1327 2083
1704 702 317 1356 447 2014 401z m-6924 -2794 c310 -66 655 -437 891 -958 64
-142 158 -426 193 -582 83 -374 83 -744 0 -1029 -14 -48 -23 -62 -55 -82 -180
-113 -447 -210 -694 -250 -517 -84 -1042 13 -1451 268 -218 135 -442 349 -485
463 -48 127 -36 377 31 608 95 331 293 703 523 981 258 312 555 518 836 581
75 16 133 16 211 0z m923 -2935 c6 -9 -46 -100 -123 -216 -63 -96 -223 -255
-286 -286 -43 -21 -63 -24 -145 -22 -248 3 -730 176 -1070 382 -135 82 -141
96 -29 61 97 -30 234 -60 339 -77 137 -20 464 -28 601 -14 211 22 458 81 614
145 93 39 92 39 99 27z m10086 -4115 c453 -305 713 -506 1110 -857 182 -161
564 -545 705 -709 611 -708 996 -1410 1174 -2140 75 -309 96 -506 95 -885 0
-333 -13 -462 -70 -735 -155 -733 -529 -1442 -1128 -2140 -170 -198 -529 -547
-711 -692 -806 -640 -1432 -996 -2020 -1148 -466 -120 -855 -99 -1256 69 -168
70 -403 228 -553 371 l-71 68 43 37 c31 27 42 44 42 66 0 49 -29 59 -145 49
-55 -5 -192 -9 -305 -10 -1233 -1 -2325 324 -3172 947 -251 184 -399 313 -611
530 -691 709 -1179 1647 -1447 2776 -18 76 -30 140 -26 144 3 4 31 -21 61 -54
72 -79 137 -113 219 -113 38 0 77 8 103 19 134 61 236 284 288 631 22 143 31
649 16 847 -40 510 -171 1020 -333 1304 -21 36 -38 73 -38 82 0 11 29 32 82
58 204 102 450 274 646 451 23 22 47 36 52 33 5 -3 43 -76 85 -163 193 -399
418 -734 703 -1045 165 -181 314 -312 534 -471 59 -42 110 -81 113 -85 2 -5
-13 -47 -34 -93 -83 -179 -141 -380 -172 -598 -18 -123 -21 -175 -16 -340 9
-317 64 -559 186 -815 138 -288 298 -482 515 -626 155 -102 306 -149 486 -149
237 0 413 76 601 258 171 164 301 400 368 667 48 193 55 260 55 510 -1 267 -4
294 -76 549 -48 175 -50 169 67 180 41 4 128 15 193 26 91 15 120 17 129 7 6
-7 28 -88 48 -182 259 -1211 752 -2441 1322 -3295 111 -168 106 -159 204 -290
185 -244 405 -482 572 -618 167 -137 372 -261 530 -323 166 -64 403 -94 565
-70 408 60 771 402 1040 979 171 366 303 841 381 1367 99 670 93 1438 -16
2070 -14 83 -30 175 -35 204 -5 30 -34 152 -64 270 -153 601 -363 1054 -600
1296 -98 99 -125 115 -162 94 -41 -23 -40 -57 5 -115 222 -287 448 -815 577
-1347 116 -479 160 -820 172 -1337 27 -1142 -240 -2261 -680 -2845 -168 -224
-347 -361 -556 -427 -63 -19 -96 -23 -210 -23 -153 1 -244 21 -399 90 -485
215 -1005 799 -1474 1656 -49 90 -229 450 -262 524 -170 380 -269 632 -413
1045 -56 160 -179 584 -237 820 -74 296 -115 504 -102 516 7 7 71 31 142 54
116 39 168 58 310 118 100 41 372 186 483 256 424 269 804 621 1129 1046 360
471 666 1075 863 1700 23 74 47 141 53 148 13 16 43 -2 327 -192z m-8202
-1644 c87 -121 200 -422 262 -692 76 -336 95 -521 95 -940 0 -373 -9 -469 -61
-674 -41 -160 -108 -286 -152 -286 -54 0 -152 122 -212 266 -152 364 -236 810
-247 1311 -9 400 27 716 104 933 21 58 18 56 93 84 85 31 95 31 118 -2z
m-1153 -77 c138 -30 408 -43 545 -27 47 6 89 7 93 3 5 -5 3 -90 -3 -189 -22
-384 -12 -958 25 -1372 81 -897 299 -1729 654 -2493 23 -49 41 -93 41 -98 0
-10 -113 -100 -198 -158 -82 -55 -231 -126 -307 -146 -132 -35 -278 -29 -383
16 -369 158 -635 704 -747 1534 -44 326 -50 446 -50 935 0 469 5 567 46 980
47 472 136 1040 163 1040 2 0 57 -11 121 -25z m3815 -1194 c236 -123 513 -218
785 -271 151 -29 233 -39 425 -50 108 -7 169 -15 177 -23 14 -13 83 -235 107
-340 31 -137 39 -234 34 -408 -13 -423 -146 -772 -377 -991 -138 -131 -262
-186 -436 -195 -106 -6 -163 4 -277 47 -182 68 -396 277 -527 515 -206 374
-271 841 -180 1290 38 187 144 465 178 465 8 0 49 -18 91 -39z m-1371 -4494
c331 -324 674 -579 1073 -796 26 -14 48 -31 48 -38 0 -13 -41 -37 -290 -170
-976 -524 -1889 -837 -2635 -904 -160 -14 -492 -13 -530 1 l-30 11 115 113
c164 159 272 245 555 434 265 178 498 314 795 462 174 87 210 111 210 143 0
28 -28 57 -55 57 -70 0 -395 -129 -655 -261 -394 -199 -926 -602 -1133 -857
l-52 -64 -44 7 c-58 9 -200 59 -281 100 -119 60 -222 159 -242 232 -25 93 176
284 512 485 110 65 279 153 500 258 268 127 299 141 510 232 102 44 193 87
202 95 22 20 23 66 3 83 -10 9 -33 11 -68 7 -125 -13 -540 -158 -807 -282
-212 -98 -217 -100 -201 -81 34 40 502 297 701 384 461 201 903 352 1432 487
95 24 175 44 177 44 2 1 88 -81 190 -182z m8237 -929 c-21 -130 -149 -428
-275 -638 -134 -223 -310 -465 -509 -698 -154 -181 -609 -636 -792 -793 -594
-510 -1162 -879 -1750 -1139 -190 -84 -494 -187 -504 -171 -3 3 11 42 30 86
109 251 273 548 449 815 177 269 345 472 617 746 123 124 139 144 136 170 -2
18 -12 34 -29 43 -24 13 -31 12 -82 -12 -150 -74 -440 -347 -618 -582 -270
-357 -527 -803 -684 -1185 -26 -63 -53 -122 -61 -131 -18 -20 -160 -39 -290
-39 -182 1 -364 42 -504 116 -30 16 -86 59 -124 96 -82 79 -82 68 4 243 142
292 448 735 694 1005 170 187 507 519 638 628 56 47 68 62 68 88 0 67 -54 72
-154 12 -283 -166 -644 -510 -933 -889 -136 -178 -346 -493 -406 -609 -23 -45
-54 -86 -60 -80 -12 12 26 202 59 299 166 493 680 1141 1276 1609 l66 52 114
-59 c480 -252 1001 -287 1603 -109 203 59 334 112 590 233 354 168 937 550
1340 878 86 70 100 72 91 15z"/>
<path d="M9602 21445 c-331 -76 -656 -375 -871 -802 -234 -463 -341 -926 -341
-1463 0 -321 31 -535 116 -805 140 -443 394 -738 704 -822 91 -24 282 -24 370
1 335 95 632 382 859 829 154 304 258 659 307 1047 24 186 24 558 0 734 -63
480 -217 843 -451 1065 -102 96 -193 152 -313 194 -73 25 -105 30 -202 33 -75
2 -137 -2 -178 -11z m241 -304 c71 -27 132 -116 177 -256 29 -89 39 -334 20
-465 -39 -265 -160 -529 -297 -650 -68 -60 -113 -80 -177 -80 -78 0 -128 40
-178 141 -156 310 -74 881 168 1172 96 116 206 169 287 138z"/>
<path d="M21170 9500 c0 -5 5 -10 10 -10 6 0 10 5 10 10 0 6 -4 10 -10 10 -5
0 -10 -4 -10 -10z"/>
</g>
</svg>
